<?xml version="1.0" encoding="UTF-8" standalone="no"?>
<svg
   focusable="false"
   x="0px"
   y="0px"
   width="30"
   height="30"
   viewBox="0 0 171 171"
   style=" fill:#000000;"
   version="1.1"
   id="svg10"
   sodipodi:docname="search.svg"
   inkscape:version="1.1 (c68e22c387, 2021-05-23)"
   xmlns:inkscape="http://www.inkscape.org/namespaces/inkscape"
   xmlns:sodipodi="http://sodipodi.sourceforge.net/DTD/sodipodi-0.dtd"
   xmlns="http://www.w3.org/2000/svg"
   xmlns:svg="http://www.w3.org/2000/svg">
  <defs
     id="defs14" />
  <sodipodi:namedview
     id="namedview12"
     pagecolor="#ffffff"
     bordercolor="#666666"
     borderopacity="1.0"
     inkscape:pageshadow="2"
     inkscape:pageopacity="0.0"
     inkscape:pagecheckerboard="0"
     showgrid="false"
     inkscape:zoom="15.466667"
     inkscape:cx="14.127155"
     inkscape:cy="15"
     inkscape:window-width="1280"
     inkscape:window-height="650"
     inkscape:window-x="-6"
     inkscape:window-y="-6"
     inkscape:window-maximized="1"
     inkscape:current-layer="g8" />
  <g
     fill="none"
     fill-rule="nonzero"
     stroke="none"
     stroke-width="1"
     stroke-linecap="butt"
     stroke-linejoin="miter"
     stroke-miterlimit="10"
     stroke-dasharray=""
     stroke-dashoffset="0"
     font-family="none"
     font-weight="none"
     font-size="none"
     text-anchor="none"
     style="mix-blend-mode: normal"
     id="g8">
    <path
       d="M0,171.99609v-171.99609h171.99609v171.99609z"
       fill="none"
       id="path2" />
    <g
       fill="#ff7a7a"
       id="g6"
       transform="translate(-1.1056035,-2.5797414)"
       style="fill:#e40000;fill-opacity:1">
      <path
         d="m 74.1,17.1 c -31.41272,0 -57,25.58728 -57,57 0,31.41272 25.58728,57 57,57 13.6601,0 26.20509,-4.85078 36.03692,-12.90293 l 34.03301,34.03301 c 1.42965,1.48907 3.55262,2.08891 5.55014,1.56818 1.99752,-0.52073 3.55746,-2.08067 4.07819,-4.07819 0.52073,-1.99752 -0.0791,-4.12049 -1.56818,-5.55014 L 118.19707,110.13692 C 126.24922,100.3051 131.1,87.7601 131.1,74.1 c 0,-31.41272 -25.58728,-57 -57,-57 z m 0,11.4 c 25.2517,0 45.6,20.3483 45.6,45.6 0,25.2517 -20.3483,45.6 -45.6,45.6 -25.2517,0 -45.6,-20.3483 -45.6,-45.6 0,-25.2517 20.3483,-45.6 45.6,-45.6 z"
         id="path4"
         style="fill:#e40000;fill-opacity:1" />
    </g>
  </g>
</svg>
